<?xml version="1.0" encoding="UTF-8"?>
<svg width="2631px" height="765px" viewBox="0 0 2631 765" version="1.1" xmlns="http://www.w3.org/2000/svg" xmlns:xlink="http://www.w3.org/1999/xlink">
    <!-- Generator: Sketch 58 (84663) - https://sketch.com -->
    <title>Artboard Copy 18</title>
    <desc>Created with Sketch.</desc>
    <g id="Artboard-Copy-18" stroke="none" stroke-width="1" fill="none" fill-rule="evenodd">
        <g id="Group-11" transform="translate(329.000000, 176.000000)">
            <text id="WHO-ANSWERED" font-family="HelveticaNeue-Medium, Helvetica Neue" font-size="28" font-weight="400" letter-spacing="0.746666667" fill="#303030">
                <tspan x="34" y="27">WHO ANSWERED</tspan>
            </text>
            <g id="Group-2" transform="translate(0.000000, 359.000000)">
                <rect id="Rectangle" fill="#FFFFFF" x="0" y="0" width="317" height="52"></rect>
                <text id="59%" font-family="HelveticaNeue-Bold, Helvetica Neue" font-size="30" font-weight="bold" letter-spacing="0.8" fill="#303030">
                    <tspan x="48" y="46">59%</tspan>
                </text>
                <text id="41%" font-family="HelveticaNeue-Bold, Helvetica Neue" font-size="30" font-weight="bold" letter-spacing="0.8" fill="#303030">
                    <tspan x="239" y="46">41%</tspan>
                </text>
            </g>
            <g id="Group-9" transform="translate(34.000000, 128.000000)" fill="#6F9BAE" fill-rule="nonzero">
                <ellipse id="Oval" cx="38.4994054" cy="25.7033639" rx="25.6666667" ry="25.7033639"></ellipse>
                <path d="M66.6429054,127.311974 L70.5827388,127.311974 C72.4307388,127.311974 74.1760721,126.51517 75.3952388,125.127188 C76.6144054,123.752058 77.1790721,121.901416 76.9480721,120.076477 L71.1859054,74.5172649 C70.4159054,67.9886105 64.9232388,63.0535646 58.3910721,63.0535646 L18.6077388,63.0535646 C12.0627388,63.0535646 6.57007208,67.9886105 5.82573875,74.4530065 L0.0507387512,120.076477 C-0.180261249,121.901416 0.384405418,123.752058 1.60357208,125.127188 C2.82273875,126.51517 4.56807208,127.311974 6.41607208,127.311974 L10.3430721,127.311974 L0.333072084,157.410614 C-0.321427916,159.364069 0.0122387512,161.523152 1.20573875,163.19387 C2.41207208,164.877441 4.34990542,165.86702 6.41607208,165.86702 L13.8080721,165.86702 L18.4409054,193.67806 C19.4804054,199.898274 24.8062388,204.422066 31.1074054,204.422066 L45.8914054,204.422066 C52.1925721,204.422066 57.5184054,199.898274 58.5450721,193.67806 L63.1907388,165.86702 L70.5827388,165.86702 C72.6489054,165.86702 74.5867388,164.877441 75.7802388,163.19387 C76.9988108,161.523152 77.3202388,159.364069 76.6657388,157.410614 L66.6429054,127.311974 Z" id="Path"></path>
            </g>
            <g id="Group-10" transform="translate(211.000000, 128.000000)" fill="#6F9BAE" fill-rule="nonzero">
                <ellipse id="Oval" cx="38.4931695" cy="25.5884146" rx="25.6666667" ry="25.5884146"></ellipse>
                <path d="M76.9675028,133.699466 L71.1155028,75.4986174 C70.4610028,68.9223948 64.9683362,63.9710366 58.3463362,63.9710366 L51.3265028,63.9710366 C49.6196695,63.9710366 47.9898362,64.6491296 46.7835028,65.8389909 L38.4931695,74.1040488 L30.2028362,65.8389909 C28.9965028,64.6491296 27.3666695,63.9710366 25.6598362,63.9710366 L18.6400028,63.9710366 C12.0180028,63.9710366 6.52533618,68.9223948 5.87083618,75.4858232 L0.031669509,133.699466 C-0.147997158,135.50345 0.442336176,137.281845 1.66150284,138.63803 C2.86783618,139.968628 4.60033618,140.73628 6.40983618,140.73628 L13.4296695,140.73628 L18.6913362,193.19253 C19.3458362,199.743165 24.8513362,204.707317 31.4733362,204.707317 L45.5258362,204.707317 C52.1478362,204.707317 57.6405028,199.743165 58.2950028,193.19253 L63.5566695,140.73628 L70.5765028,140.73628 C72.3860028,140.73628 74.1185028,139.968628 75.3376695,138.63803 C76.5568362,137.294639 77.1471695,135.50345 76.9675028,133.699466 Z" id="Path"></path>
            </g>
        </g>
        <g id="Group-8" transform="translate(1827.000000, 176.000000)">
            <text id="WHAT-CITIZENS-ARE-AS" font-family="HelveticaNeue-Medium, Helvetica Neue" font-size="28" font-weight="400" letter-spacing="0.746666667" fill="#303030">
                <tspan x="0" y="27">WHAT CITIZENS ARE ASKING FOR</tspan>
            </text>
            <g id="Group" transform="translate(156.000000, 124.000000)" fill="#6F9BAE" fill-rule="nonzero">
                <g id="policeman" transform="translate(0.000000, 39.000000)">
                    <path d="M67.3719082,114.919394 C60.629516,107.320696 57.3521881,100.868469 57.3521881,95.1941915 L57.3521881,94.8620706 L57.3961007,94.5328128 C57.4351788,94.2403664 57.8283776,91.3093583 58.3541198,87.5157356 L51.8538511,85.6019501 L51.3534896,79.2851081 C60.8369928,73.2946609 65.5392635,60.5877632 64.3798105,48.3630952 C58.3190704,53.7338833 49.0148431,55.8738547 40.9405707,55.8738547 C32.8662983,55.8738547 23.5552224,53.7281571 17.5013309,48.3630952 C16.2943396,61.0822634 21.3877947,73.5118484 30.5276519,79.2851081 L30.0272903,85.6019501 L5.30370864,92.8812065 C1.80117774,93.9123356 -0.427082955,97.3951062 0.0688470599,101.063161 L2.50821037,119.105672 C2.96465936,122.483325 5.80729314,125 9.16519458,125 L72.7159469,125 C74.0687763,125 75.3341834,124.586076 76.397351,123.87766 C73.591781,121.372029 70.3398338,118.264326 67.3719082,114.919394 L67.3719082,114.919394 Z" id="Path"></path>
                    <path d="M11.1717565,32.7091193 C13.4205178,34.2464435 14.7741878,35.1716924 17.009308,36.6996376 C15.8478158,44.6786353 26.9800867,51.3392857 40.7948228,51.3392857 C54.6256072,51.3392857 65.7394225,44.6704797 64.5803376,36.6996376 C66.8106433,35.1749546 68.1735411,34.243589 70.4178891,32.7091193 C71.6399634,31.8735816 72.2080715,30.342782 71.8325424,28.8951691 L68.4628108,15.8951974 C68.0307116,14.2273843 66.9197714,12.8258503 65.4088286,12.0408771 L43.5097857,0.664270822 C41.804659,-0.221423607 39.7845854,-0.221423607 38.0794586,0.664270822 L16.1804158,12.0408771 C14.669473,12.8258503 13.558934,14.2273843 13.1264336,15.8951974 L9.75670197,28.8951691 C9.38157409,30.3431897 9.94928098,31.8735816 11.1717565,32.7091193 Z M33.5535822,14.4856916 C33.6587134,13.7749041 34.2726635,13.2488479 34.9958514,13.2488479 L46.688417,13.2488479 C47.4198184,13.2488479 48.0378751,13.7867301 48.1339717,14.5064891 L48.9926804,20.9480263 C48.9926804,24.1692027 43.8437134,28.6137654 41.707003,30.3195739 C41.1739547,30.7449045 40.4138066,30.7436811 39.8807583,30.3183505 C37.7432265,28.6117265 32.5967236,24.1683871 32.5967236,20.9480263 L33.5535822,14.4856916 L33.5535822,14.4856916 Z" id="Shape"></path>
                    <path d="M108.532148,70.9255446 C107.754905,66.601842 98.9798753,65.5008668 87.1521156,65.4761905 C75.3243559,65.5012781 66.5493259,66.601842 65.7720835,70.9255446 C64.7047408,76.8639012 62.3046358,94.8130456 62.3046358,94.8130456 C62.3046358,104.950078 78.3600923,118.991727 84.6589519,124.11083 C85.3884511,124.703473 86.2696764,125 87.1509018,125 C88.0345547,125 88.9178031,124.702239 89.6493253,124.107951 C95.9510172,118.986381 112,104.948433 112,94.8134569 C112,94.8130456 109.59949,76.8639012 108.532148,70.9255446 Z M100.292193,88.0007069 C99.9955408,88.0007069 99.7158402,87.9317634 99.4647957,87.8117206 L94.953261,92.8798796 L95.6385881,99.6460767 C96.5749596,99.7803138 97.2954006,100.586953 97.2954006,101.564734 C97.2954006,102.636197 96.4308714,103.504885 95.364538,103.504885 C94.2982046,103.504885 93.4336754,102.636197 93.4336754,101.564734 C93.4336754,101.497413 93.4373079,101.430902 93.4437656,101.365609 L87.1519143,98.5758301 L80.9411882,101.329921 C80.9504712,101.406975 80.9565253,101.485246 80.9565253,101.56514 C80.9565253,102.636603 80.0919961,103.505291 79.0256627,103.505291 C77.9593293,103.505291 77.0948001,102.636603 77.0948001,101.56514 C77.0948001,100.61818 77.7704406,99.830602 78.6640296,99.660271 L79.3505675,92.8806907 L74.8390328,87.8125317 C74.5879884,87.9325745 74.3082878,88.001518 74.0116356,88.001518 C72.9453022,88.001518 72.080773,87.1328298 72.080773,86.060961 C72.080773,84.9894978 72.9453022,84.1208096 74.0116356,84.1208096 C74.7320766,84.1208096 75.359284,84.5178431 75.6910501,85.1058906 L82.3300047,83.6645658 L85.7203153,77.8092341 C85.4111512,77.4653276 85.2210517,77.010706 85.2210517,76.5102573 C85.2210517,75.438794 86.0855809,74.5701058 87.1519143,74.5701058 C88.2182477,74.5701058 89.0831805,75.438794 89.0831805,76.5102573 C89.0831805,77.010706 88.8930809,77.4649221 88.5839169,77.8092341 L91.9742274,83.6645658 L98.6135856,85.1058906 C98.9453517,84.5182486 99.5725592,84.1208096 100.293,84.1208096 C101.359334,84.1208096 102.223863,84.9894978 102.223863,86.060961 C102.223459,87.1320187 101.35893,88.0007069 100.292193,88.0007069 L100.292193,88.0007069 Z" id="Shape"></path>
                </g>
                <g id="cctv" transform="translate(97.000000, 0.000000)">
                    <path d="M111.977488,35.1616669 C111.88226,34.6010372 111.495421,34.1365369 110.966295,33.9465311 L47.4993917,11.1830116 L48.5417097,7.80120899 C49.5180723,4.63382002 47.7758116,1.26440908 44.6503397,0.274952065 C41.5259794,-0.714504952 38.2000475,1.05074645 37.2236849,4.21851093 L36.3136482,7.17111075 L29.442427,4.70666809 C26.4092186,3.61882863 23.0799519,5.22862075 22.0065088,8.30250885 L14.9870732,28.4018168 C13.9143712,31.4738273 15.5024889,34.8496219 18.5356973,35.9374613 L41.6386224,44.2229904 L41.6386224,58.8849785 L5.92857741,58.8849785 C2.65415,58.8849785 0,61.5747245 0,64.8930667 C0,68.2114089 2.65415,70.9011548 5.92857741,70.9011548 L41.6386224,70.9011548 L41.6386224,74.9919118 C41.6386224,78.310254 44.2927724,81 47.5671998,81 C50.8416272,81 53.4957772,78.310254 53.4957772,74.9919118 L53.4957772,48.4755903 L80.7253627,58.2413621 C82.6369584,58.9270351 84.7627239,58.5556602 86.3378728,57.2616682 L87.4831999,56.3206514 L97.269799,59.8312524 C98.7263764,60.3539561 100.328204,60.2683408 101.722902,59.5939329 C103.1176,58.919525 104.190672,57.7111483 104.706088,56.2346606 L106.773679,50.3129387 C107.787095,47.4106567 106.425375,44.2432677 103.716756,42.9830712 L111.42576,36.6494198 C111.86151,36.2911875 112.072716,35.7222967 111.977488,35.1616669 Z M57.0514415,33.8958379 C56.3496461,35.9062944 55.0813011,37.549882 53.4957772,38.7199571 L53.4957772,31.0416205 C53.4957772,28.0488416 51.0739533,24.7988414 47.5712757,24.7988414 C44.1056516,24.7988414 41.6386224,27.9973973 41.6386224,31.0416205 L41.6386224,38.7327243 C38.1392795,36.1432383 36.5626485,31.4366523 38.0785116,27.090927 C39.9319331,21.7895402 45.690805,19.0017873 50.9198103,20.8766863 C56.1654897,22.7590955 58.910421,28.5801819 57.0514415,33.8958379 Z" id="Shape"></path>
                </g>
            </g>
            <g id="Group-7" transform="translate(134.000000, 339.000000)" fill="#303030" font-family="HelveticaNeue-Medium, Helvetica Neue" font-weight="400">
                <text id="48%" font-size="30" letter-spacing="0.8">
                    <tspan x="66" y="29">48% </tspan>
                </text>
                <text id="More-survellance" font-size="24" letter-spacing="0.64">
                    <tspan x="0" y="68">More survellance </tspan>
                </text>
            </g>
        </g>
        <g id="Group-6" transform="translate(953.000000, 176.000000)">
            <g id="road" transform="translate(0.000000, 140.000000)" fill="#6F9BAE" fill-rule="nonzero">
                <path d="M21.2514644,3.24871833 L0.0610185152,131.279968 C-0.132729923,132.447266 0.14015505,133.649841 0.805085393,134.559814 C1.47001574,135.470825 2.45240248,136 3.49300473,136 L13.7316576,136 L36,0 L24.6834506,0 C23.0015681,0 21.5589149,1.36547852 21.2514644,3.24871833 Z" id="Path"></path>
                <path d="M43.3973259,0 L21,136 L56.486981,136 L56.486981,115.8125 C56.486981,113.610718 58.0577762,111.828125 60,111.828125 C61.9413088,111.828125 63.513019,113.610718 63.513019,115.8125 L63.513019,136 L99,136 L76.6017593,0 L63.513019,0 L63.513019,20.1875 C63.513019,22.3892821 61.9413088,24.171875 60,24.171875 C58.0577762,24.171875 56.486981,22.3892821 56.486981,20.1875 L56.486981,0 L43.3973259,0 Z M63.513019,99.875 C63.513019,102.076782 61.9413088,103.859375 60,103.859375 C58.0577762,103.859375 56.486981,102.076782 56.486981,99.875 L56.486981,91.90625 C56.486981,89.7044679 58.0577762,87.921875 60,87.921875 C61.9413088,87.921875 63.513019,89.7044679 63.513019,91.90625 L63.513019,99.875 Z M63.513019,75.96875 C63.513019,78.1705321 61.9413088,79.953125 60,79.953125 C58.0577762,79.953125 56.486981,78.1705321 56.486981,75.96875 L56.486981,60.03125 C56.486981,57.8294679 58.0577762,56.046875 60,56.046875 C61.9413088,56.046875 63.513019,57.8294679 63.513019,60.03125 L63.513019,75.96875 Z M60,32.140625 C61.9413088,32.140625 63.513019,33.9232179 63.513019,36.125 L63.513019,44.09375 C63.513019,46.2955321 61.9413088,48.078125 60,48.078125 C58.0577762,48.078125 56.486981,46.2955321 56.486981,44.09375 L56.486981,36.125 C56.486981,33.9232179 58.0577762,32.140625 60,32.140625 Z" id="Shape"></path>
                <path d="M116.507574,136 C117.548137,136 118.530486,135.470825 119.195391,134.559814 C119.860296,133.649841 120.133171,132.447266 119.93852,131.279968 L98.7488828,3.24871833 C98.4423535,1.36547852 96.9997553,0 95.317937,0 L84,0 L106.270222,136 L116.507574,136 Z" id="Path"></path>
            </g>
            <text id="WHERE-THEY-FEEL-MOST" font-family="HelveticaNeue-Medium, Helvetica Neue" font-size="28" font-weight="400" letter-spacing="0.746666667" fill="#303030">
                <tspan x="0" y="27">WHERE THEY FEEL MOST VULNERABLE</tspan>
            </text>
            <g id="users-group" transform="translate(195.000000, 143.000000)" fill="#6F9BAE" fill-rule="nonzero">
                <path d="M36.228216,18.600278 C36.228216,8.32784436 43.803914,0 53.1498029,0 C62.4944606,0 70.0708973,8.32784436 70.0708973,18.600278 C70.0708973,28.8727117 62.4944606,37.2002853 53.1498029,37.2002853 C43.803914,37.2002853 36.228216,28.8727117 36.228216,18.600278 Z M61.2815019,49.8725977 C61.4511585,45.8223625 62.7195204,42.0736686 64.7600784,38.9746148 C63.3279696,38.6449224 61.8478448,38.4697903 60.3290609,38.4697903 L45.9725148,38.4697903 C44.4581632,38.4697903 42.9800082,38.643569 41.5552865,38.9692011 C43.7268422,42.2802 45.0257373,46.3239388 45.0469136,50.7014301 C47.6865639,49.105481 50.7152672,48.196797 53.9323411,48.196797 C56.5419506,48.196797 59.026226,48.7944658 61.2815019,49.8725977 Z M64.1457195,51.5421727 C69.0605909,54.9303163 72.5071567,60.6609538 73.137521,67.315975 C75.1401587,68.3448425 77.36564,68.9384511 79.7233501,68.9384511 C88.3337319,68.9384511 95.3128,61.2656605 95.3128,51.8006753 C95.3128,42.3346074 88.3337319,34.6634409 79.7233501,34.6634409 C71.1917638,34.6634409 64.2752397,42.1987243 64.1457195,51.5421727 Z M53.9320948,86.6324812 C62.5409992,86.6324812 69.5205598,78.9575251 69.5205598,69.4952468 C69.5205598,60.031615 62.5409992,52.3580123 53.9320948,52.3580123 C45.3224517,52.3580123 38.3399363,60.0313443 38.3399363,69.4952468 C38.3399363,78.9575251 45.3224517,86.6324812 53.9320948,86.6324812 Z M60.5450099,87.7988558 L47.3179486,87.7988558 C36.3119363,87.7988558 27.3558391,97.6433391 27.3558391,109.743697 L27.3558391,127.528406 L27.3979454,127.80694 L28.5114248,128.18752 C39.0153618,131.793835 48.1408694,133 55.652546,133 C70.3210731,133 78.8268047,128.401902 79.350795,128.107669 L80.3926196,127.528136 L80.5031796,127.528136 L80.5031796,109.743427 C80.5031796,97.6433391 71.5524996,87.7988558 60.5450099,87.7988558 Z M86.3397125,70.1080739 L73.2118842,70.1080739 C73.0693136,75.8822914 70.8275807,81.0821188 67.2822742,84.8197147 C77.0657245,88.0178386 84.2238062,97.9903551 84.2238062,109.770766 L84.2238062,115.25075 C97.1829627,114.726166 104.652287,110.690819 105.144266,110.418782 L106.186337,109.836271 L106.296897,109.836271 L106.296897,92.0483139 C106.298375,79.9512037 97.3430161,70.1080739 86.3397125,70.1080739 Z M89.8488223,34.2980183 C94.7639399,37.6867033 98.2102595,43.4176115 98.8391463,50.0726327 C100.84203,51.1015002 103.067265,51.694026 105.424975,51.694026 C114.037081,51.694026 121.015657,44.0223181 121.015657,34.5586864 C121.015657,25.0923478 114.036835,17.421452 105.424975,17.421452 C96.8946203,17.4203692 89.9785887,24.9570061 89.8488223,34.2980183 Z M112.03986,52.8639195 L98.9147408,52.8639195 C98.7721701,58.638137 96.5306834,63.8379645 92.9853769,67.5752897 C102.768581,70.7723309 109.926663,80.7462008 109.926663,92.5266114 L109.926663,98.0065961 C122.884588,97.4830945 130.355389,93.4482883 130.847369,93.1743567 L131.887963,92.5937409 L132,92.5937409 L132,74.8036182 C132.001477,62.7075907 123.046119,52.8639195 112.03986,52.8639195 Z M26.5779794,68.9387218 C29.627859,68.9387218 32.4637595,67.9593894 34.8687469,66.2922505 C35.633556,60.8133486 38.3057095,56.0246892 42.1213832,52.7648494 C42.1373885,52.4432776 42.1642282,52.125766 42.1642282,51.800946 C42.1642282,42.3348781 35.1831903,34.6637115 26.5779794,34.6637115 C17.9653815,34.6637115 10.9872983,42.3346074 10.9872983,51.800946 C10.9872983,61.2675552 17.9651352,68.9387218 26.5779794,68.9387218 Z M40.5784682,84.8197147 C37.0496595,81.0999839 34.8155599,75.9285783 34.6510742,70.1879255 C34.165743,70.148135 33.683859,70.1080739 33.1876934,70.1080739 L19.9621095,70.1080739 C8.95461982,70.1080739 0,79.9512037 0,92.049938 L0,109.836271 L0.0408751826,110.11318 L1.15583197,110.495385 C9.58055183,113.391426 17.1023241,114.722377 23.6352125,115.138417 L23.6352125,109.768871 C23.6364437,97.9903551 30.7928017,88.0162145 40.5784682,84.8197147 Z" id="Shape"></path>
            </g>
            <g id="train-front" transform="translate(402.000000, 143.000000)" fill="#6F9BAE" fill-rule="nonzero">
                <path d="M109.11331,110.572302 L117.319611,110.572302 C119.832686,110.572302 121.869644,108.526406 121.869644,106.002303 L121.869644,17.9481408 C121.869644,11.6379999 116.77667,6.52267727 110.49433,6.52267727 L85.5167157,6.52267727 L85.5167157,0 L56.4835163,0 L56.4835163,6.52267727 L31.505902,6.52267727 C25.2233301,6.52267727 20.1303562,11.6379999 20.1303562,17.9481408 L20.1303562,106.00207 C20.1303562,108.526173 22.1675458,110.572069 24.6806209,110.572069 L32.8869216,110.572069 L0,136 L21.140134,136 L46.9057092,110.572302 L95.0942908,110.572302 L120.859866,136 L142,136 L109.11331,110.572302 Z M95.0942908,96.1629391 C95.0942908,92.2960348 98.2152745,89.1611227 102.065516,89.1611227 C105.915526,89.1611227 109.03651,92.2958018 109.03651,96.1629391 C109.03651,100.029843 105.915526,103.164755 102.065516,103.164755 C98.2152745,103.164755 95.0942908,100.02961 95.0942908,96.1629391 Z M40.4210425,103.164755 C36.5710327,103.164755 33.450049,100.029843 33.450049,96.1629391 C33.450049,92.2960348 36.5710327,89.1611227 40.4210425,89.1611227 C44.2710523,89.1611227 47.392268,92.2958018 47.392268,96.1629391 C47.392268,100.02961 44.2710523,103.164755 40.4210425,103.164755 Z M33.7263922,66.9613215 C32.4699706,66.9613215 31.4513758,65.938257 31.4513758,64.676322 L31.4513758,20.4272662 C31.4513758,19.1653312 32.4699706,18.1422667 33.7263922,18.1422667 L108.27384,18.1422667 C109.530261,18.1422667 110.548856,19.1653312 110.548856,20.4272662 L110.548856,64.676322 C110.548856,65.938257 109.530261,66.9613215 108.27384,66.9613215 L33.7263922,66.9613215 L33.7263922,66.9613215 Z" id="Shape"></path>
            </g>
            <g id="Group-3" transform="translate(18.000000, 340.000000)" fill="#303030">
                <text id="Streets" font-family="HelveticaNeue-Medium, Helvetica Neue" font-size="24" font-weight="400" letter-spacing="0.64">
                    <tspan x="0" y="67">Streets</tspan>
                </text>
                <text id="75%" font-family="HelveticaNeue-Bold, Helvetica Neue" font-size="30" font-weight="bold" letter-spacing="0.8">
                    <tspan x="9" y="29">75%</tspan>
                </text>
            </g>
            <g id="Group-4" transform="translate(214.000000, 340.000000)" fill="#303030">
                <text id="44%" font-family="HelveticaNeue-Bold, Helvetica Neue" font-size="30" font-weight="bold" letter-spacing="0.8">
                    <tspan x="14" y="29">44%</tspan>
                </text>
                <text id="clusters" font-family="HelveticaNeue-Medium, Helvetica Neue" font-size="24" font-weight="400" letter-spacing="0.64">
                    <tspan x="0" y="67">clusters</tspan>
                </text>
            </g>
            <g id="Group-5" transform="translate(380.000000, 340.000000)" fill="#303030">
                <text id="30%" font-family="HelveticaNeue-Bold, Helvetica Neue" font-size="30" font-weight="bold" letter-spacing="0.8">
                    <tspan x="57" y="29">30%</tspan>
                </text>
                <text id="public-transport" font-family="HelveticaNeue-Medium, Helvetica Neue" font-size="24" font-weight="400" letter-spacing="0.64">
                    <tspan x="0" y="67">public transport</tspan>
                </text>
            </g>
        </g>
    </g>
</svg>