<?xml version="1.0" encoding="UTF-8"?>
<svg width="121px" height="43px" viewBox="0 0 121 43" version="1.1" xmlns="http://www.w3.org/2000/svg" xmlns:xlink="http://www.w3.org/1999/xlink">
    <!-- Generator: sketchtool 63.1 (101010) - https://sketch.com -->
    <title>4D951C51-65F9-41D4-B1DB-02DA4ED98BDE@2x</title>
    <desc>Created with sketchtool.</desc>
    <g id="Asset-Artboard-Page" stroke="none" stroke-width="1" fill="none" fill-rule="evenodd">
        <g id="Atoms-/-assets-/-logoAlmirall" transform="translate(0.938697, 0.000000)" fill-rule="nonzero">
            <g id="Recurso-1">
                <path d="M21.5254658,2.30916737 L21.5254658,0.00740117746 L9.49937888,6.29840202 C8.65089244,6.73944223 8.11953953,7.61216882 8.1204956,8.56316232 L8.1204956,10.8686291 L20.1465839,4.57762826 C20.9926934,4.13408231 21.5230843,3.26293579 21.5254658,2.31286796 L21.5254658,2.30916737 Z M21.5627329,7.69352397 L9.53664596,13.9845248 C8.69091062,14.4207166 8.15637021,15.284502 8.14658385,16.2307822 L8.14658385,18.5399495 L20.1726708,12.2489487 C21.0201672,11.8127618 21.5551478,10.9468408 21.5627329,9.99899075 L21.5627329,7.69352397 Z M8.14658385,23.9243061 L8.14658385,26.2334735 L20.1726708,19.9424727 C21.0195796,19.5056589 21.5543189,18.6401287 21.5627329,17.6925147 L21.5627329,15.3833474 L9.53664596,21.6743482 C8.68973715,22.1111619 8.1549979,22.9766922 8.14658385,23.9243061 L8.14658385,23.9243061 Z M27.152795,18.7619849 C27.113462,18.651154 27.0274117,18.5628657 26.9171442,18.5202054 C26.8068768,18.4775452 26.6833568,18.484755 26.578882,18.5399495 L24.3950311,19.6797309 C24.1968862,19.7901249 24.1036235,20.0231909 24.1714286,20.2385198 C24.5343055,21.51915 24.6481364,22.8567083 24.5068323,24.1796468 C23.9523509,29.1973605 19.8524338,33.0969602 14.7801242,33.4311186 C11.8977482,33.6165318 9.06691456,32.6072762 6.96157944,30.6436323 C4.85624431,28.6799884 3.66476581,25.9376375 3.67080745,23.0694701 C3.66735594,21.1600542 4.19758809,19.2871436 5.20248447,17.6592094 C5.31664259,17.4825866 5.32380142,17.2579532 5.22111801,17.0745164 L3.93913043,14.7579479 C3.87221664,14.638509 3.74940526,14.5603874 3.61216474,14.5499617 C3.47492421,14.539536 3.34157467,14.5981979 3.25714286,14.7061396 C1.23136169,17.2929955 0.213753324,20.5188982 0.391304348,23.7910849 C0.789511001,30.8224434 6.49418834,36.407106 13.5801242,36.702439 C17.3156991,36.8484327 20.9499103,35.4766708 23.6445858,32.9035278 C26.3392613,30.3303848 27.8617338,26.7780347 27.8608699,23.0657696 C27.8579032,21.6028247 27.6188471,20.1498054 27.152795,18.7619849 L27.152795,18.7619849 Z" id="Shape" fill="#00F0BE"></path>
                <path d="M35.58,42.76 L35.58,37.98 L37.04,37.98 L37.04,37.53 L35.58,37.53 L35.58,36.54 C35.58,35.78 35.97,35.45 36.55,35.45 C36.77,35.45 36.96,35.49 37.11,35.54 L37.11,35.09 C36.92,35.03 36.78,35 36.53,35 C35.66,35 35.05,35.5 35.05,36.59 L35.05,37.53 L34.26,37.53 L34.26,37.98 L35.05,37.98 L35.05,42.76 L35.58,42.76 Z M40.048333,42.84 C41.168333,42.84 41.998333,42.3 42.218333,41.3 L41.688333,41.3 C41.508333,42.03 40.918333,42.39 40.048333,42.39 C38.808333,42.39 38.138333,41.59 38.118333,40.19 L42.258333,40.19 L42.258333,40 C42.258333,38.27 41.228333,37.45 39.968333,37.45 C38.568333,37.45 37.568333,38.54 37.568333,40.12 L37.568333,40.2 C37.568333,41.77 38.538333,42.84 40.048333,42.84 Z M41.708333,39.76 L38.138333,39.76 C38.238333,38.62 38.958333,37.9 39.968333,37.9 C40.988333,37.9 41.658333,38.49 41.708333,39.76 Z M45.646666,42.84 C46.766666,42.84 47.596666,42.3 47.816666,41.3 L47.286666,41.3 C47.106666,42.03 46.516666,42.39 45.646666,42.39 C44.406666,42.39 43.736666,41.59 43.716666,40.19 L47.856666,40.19 L47.856666,40 C47.856666,38.27 46.826666,37.45 45.566666,37.45 C44.166666,37.45 43.166666,38.54 43.166666,40.12 L43.166666,40.2 C43.166666,41.77 44.136666,42.84 45.646666,42.84 Z M47.306666,39.76 L43.736666,39.76 C43.836666,38.62 44.556666,37.9 45.566666,37.9 C46.586666,37.9 47.256666,38.49 47.306666,39.76 Z M49.714999,42.76 L49.714999,35.03 L49.174999,35.03 L49.174999,42.76 L49.714999,42.76 Z M55.441665,42.83 C55.761665,42.83 55.961665,42.78 56.131665,42.72 L56.131665,42.27 C55.951665,42.33 55.741665,42.38 55.471665,42.38 C54.991665,42.38 54.691665,42.09 54.691665,41.46 L54.691665,37.98 L56.061665,37.98 L56.061665,37.53 L54.691665,37.53 L54.691665,36.34 L54.161665,36.34 L54.161665,37.53 L53.391665,37.53 L53.391665,37.98 L54.161665,37.98 L54.161665,41.5 C54.161665,42.34 54.611665,42.83 55.441665,42.83 Z M57.929998,42.76 L57.929998,39.59 C57.929998,38.49 58.789998,37.91 59.659998,37.91 C60.589998,37.91 61.109998,38.4 61.109998,39.51 L61.109998,42.76 L61.639998,42.76 L61.639998,39.54 C61.639998,38.05 60.889998,37.45 59.779998,37.45 C58.849998,37.45 58.169998,37.98 57.929998,38.55 L57.929998,35.03 L57.399998,35.03 L57.399998,42.76 L57.929998,42.76 Z M65.378331,42.84 C66.498331,42.84 67.328331,42.3 67.548331,41.3 L67.018331,41.3 C66.838331,42.03 66.248331,42.39 65.378331,42.39 C64.138331,42.39 63.468331,41.59 63.448331,40.19 L67.588331,40.19 L67.588331,40 C67.588331,38.27 66.558331,37.45 65.298331,37.45 C63.898331,37.45 62.898331,38.54 62.898331,40.12 L62.898331,40.2 C62.898331,41.77 63.868331,42.84 65.378331,42.84 Z M67.038331,39.76 L63.468331,39.76 C63.568331,38.62 64.288331,37.9 65.298331,37.9 C66.318331,37.9 66.988331,38.49 67.038331,39.76 Z M72.984997,42.85 C74.174997,42.85 74.824997,42.21 74.824997,41.33 C74.824997,40.31 74.184997,40.04 73.064997,39.84 C71.994997,39.65 71.634997,39.43 71.634997,38.83 C71.634997,38.27 72.124997,37.9 72.854997,37.9 C73.614997,37.9 74.044997,38.2 74.174997,38.87 L74.684997,38.87 C74.544997,37.84 73.804997,37.45 72.864997,37.45 C71.984997,37.45 71.144997,37.96 71.144997,38.85 C71.144997,39.75 71.664997,40.08 72.944997,40.31 C73.924997,40.49 74.314997,40.7 74.314997,41.37 C74.314997,42 73.864997,42.4 72.984997,42.4 C72.014997,42.4 71.574997,41.91 71.484997,41.2 L70.974997,41.2 C71.044997,42.2 71.754997,42.85 72.984997,42.85 Z M78.23333,42.84 C79.42333,42.84 80.32333,42.07 80.46333,40.95 L79.97333,40.95 C79.84333,41.89 79.10333,42.39 78.23333,42.39 C77.13333,42.39 76.28333,41.58 76.28333,40.2 L76.28333,40.12 C76.28333,38.74 77.14333,37.9 78.23333,37.9 C79.05333,37.9 79.76333,38.31 79.89333,39.19 L80.41333,39.19 C80.27333,38.01 79.29333,37.45 78.23333,37.45 C76.85333,37.45 75.73333,38.52 75.73333,40.12 L75.73333,40.2 C75.73333,41.79 76.82333,42.84 78.23333,42.84 Z M82.021663,36.41 C82.231663,36.41 82.391663,36.24 82.391663,36.03 C82.391663,35.83 82.231663,35.66 82.021663,35.66 C81.811663,35.66 81.641663,35.83 81.641663,36.03 C81.641663,36.24 81.811663,36.41 82.021663,36.41 Z M82.291663,42.76 L82.291663,37.53 L81.761663,37.53 L81.761663,42.76 L82.291663,42.76 Z M86.099996,42.84 C87.219996,42.84 88.049996,42.3 88.269996,41.3 L87.739996,41.3 C87.559996,42.03 86.969996,42.39 86.099996,42.39 C84.859996,42.39 84.189996,41.59 84.169996,40.19 L88.309996,40.19 L88.309996,40 C88.309996,38.27 87.279996,37.45 86.019996,37.45 C84.619996,37.45 83.619996,38.54 83.619996,40.12 L83.619996,40.2 C83.619996,41.77 84.589996,42.84 86.099996,42.84 Z M87.759996,39.76 L84.189996,39.76 C84.289996,38.62 85.009996,37.9 86.019996,37.9 C87.039996,37.9 87.709996,38.49 87.759996,39.76 Z M90.138329,42.76 L90.138329,39.59 C90.138329,38.49 90.998329,37.91 91.868329,37.91 C92.798329,37.91 93.318329,38.4 93.318329,39.51 L93.318329,42.76 L93.848329,42.76 L93.848329,39.54 C93.848329,38.05 93.098329,37.45 91.988329,37.45 C91.058329,37.45 90.378329,37.98 90.138329,38.55 L90.138329,37.53 L89.608329,37.53 L89.608329,42.76 L90.138329,42.76 Z M97.606662,42.84 C98.796662,42.84 99.696662,42.07 99.836662,40.95 L99.346662,40.95 C99.216662,41.89 98.476662,42.39 97.606662,42.39 C96.506662,42.39 95.656662,41.58 95.656662,40.2 L95.656662,40.12 C95.656662,38.74 96.516662,37.9 97.606662,37.9 C98.426662,37.9 99.136662,38.31 99.266662,39.19 L99.786662,39.19 C99.646662,38.01 98.666662,37.45 97.606662,37.45 C96.226662,37.45 95.106662,38.52 95.106662,40.12 L95.106662,40.2 C95.106662,41.79 96.196662,42.84 97.606662,42.84 Z M103.204995,42.84 C104.324995,42.84 105.154995,42.3 105.374995,41.3 L104.844995,41.3 C104.664995,42.03 104.074995,42.39 103.204995,42.39 C101.964995,42.39 101.294995,41.59 101.274995,40.19 L105.414995,40.19 L105.414995,40 C105.414995,38.27 104.384995,37.45 103.124995,37.45 C101.724995,37.45 100.724995,38.54 100.724995,40.12 L100.724995,40.2 C100.724995,41.77 101.694995,42.84 103.204995,42.84 Z M104.864995,39.76 L101.294995,39.76 C101.394995,38.62 102.114995,37.9 103.124995,37.9 C104.144995,37.9 104.814995,38.49 104.864995,39.76 Z" id="feelthescience" fill="#FFFFFF"></path>
                <path d="M116.36646,13.784693 L116.36646,30.5890664 L119.668323,30.5890664 L119.668323,12.9261564 L116.36646,13.784693 Z M89.0534161,19.5872161 L89.0534161,18.3512195 L85.8819876,18.3512195 L85.8819876,30.5890664 L89.1838509,30.5890664 L89.1838509,22.8918419 C89.8150504,21.842623 90.9355556,21.1792043 92.1652174,21.1266611 C92.5665302,21.1174453 92.9673611,21.1597351 93.357764,21.2524811 L93.7304348,18.1994954 C93.3610283,18.1367545 92.9871743,18.1033434 92.6124224,18.0995795 C91.1217391,18.0995795 89.7652174,18.6805719 89.0273292,19.579815 L89.0534161,19.5872161 Z M103.636025,26.2926829 C102.952502,27.2523582 101.838333,27.8179847 100.654658,27.8062237 C99.7711264,27.8161275 98.9223185,27.4650574 98.3071132,26.8352703 C97.6919078,26.2054831 97.3643698,25.352325 97.4012422,24.4756939 C97.4012422,22.710513 98.6459627,21.1192461 100.576398,21.1192461 C101.776563,21.1160351 102.907343,21.6774626 103.624845,22.6328007 L103.636025,26.2926829 Z M103.762733,19.3281749 C102.750937,18.5247052 101.49179,18.0909465 100.196273,18.0994531 C96.842236,18.0994531 94.1515528,20.875021 94.1515528,24.483095 C94.1409435,26.0537532 94.6990799,27.5759009 95.7242236,28.7720774 C96.9023663,30.0921558 98.5951154,30.845656 100.371429,30.8407065 C101.627745,30.8571307 102.846896,30.4176277 103.8,29.6047098 L103.8,30.5890664 L106.975155,30.5890664 L106.975155,18.3512195 L103.8,18.3512195 L103.762733,19.3281749 Z M109.986335,30.5816653 L113.291925,30.5816653 L113.291925,12.9261564 L109.986335,13.784693 L109.986335,30.5816653 Z M81.1900621,12.219344 C80.6232307,12.2074259 80.0753541,12.4221986 79.6695782,12.8153878 C79.2638023,13.208577 79.0341709,13.7471949 79.0322981,14.3101766 C79.0321709,14.874443 79.2609228,15.4149787 79.6669208,15.8097756 C80.0729187,16.2045726 80.6219403,16.4203526 81.1900621,16.4084104 C81.7581766,16.4213487 82.3075941,16.2065199 82.7142958,15.8124167 C83.1209976,15.4183136 83.3507,14.8781577 83.3515528,14.3138772 C83.3507,13.7495967 83.1209976,13.2094408 82.7142958,12.8153377 C82.3075941,12.4212345 81.7581766,12.2064057 81.1900621,12.219344 L81.1900621,12.219344 Z M43.4645963,26.2815812 C42.7810734,27.2412565 41.6669048,27.8068829 40.4832298,27.795122 C39.5996979,27.8050258 38.7508899,27.4539556 38.1356846,26.8241685 C37.5204793,26.1943813 37.1929412,25.3412232 37.2298137,24.4645921 C37.2298137,22.6994113 38.4745342,21.1081443 40.4049689,21.1081443 C41.6051345,21.1049334 42.7359148,21.6663609 43.4534161,22.6216989 L43.4645963,26.2815812 Z M43.5913043,19.3170732 C42.5695851,18.5020679 41.2943071,18.0651283 39.9838509,18.0810765 C36.6298137,18.0810765 33.9390476,20.8565181 33.9390476,24.4645921 C33.9312182,26.0354357 34.4904933,27.557083 35.515528,28.7535744 C36.6936707,30.0736529 38.3864198,30.8271531 40.1627329,30.8222035 C41.4118576,30.8431268 42.6261743,30.4131394 43.5801242,29.612111 L43.5801242,30.5964676 L46.7552795,30.5964676 L46.7552795,18.3512195 L43.5801242,18.3512195 L43.5913043,19.3170732 Z M49.8037267,30.5890664 L53.1093168,30.5890664 L53.1093168,12.9261564 L49.8037267,13.784693 L49.8037267,30.5890664 Z M71.1726708,18.0995795 C69.5143004,18.1246598 67.9370241,18.8163076 66.8012422,20.0164844 C65.7769307,18.7978258 64.2594197,18.0952503 62.6608696,18.0995795 C61.4347141,18.0826001 60.2468981,18.5237534 59.3329193,19.3355761 L59.3329193,18.3512195 L56.157764,18.3512195 L56.157764,30.5890664 L59.4596273,30.5890664 L59.4596273,22.6402019 C60.1398669,21.7347081 61.1927755,21.1793557 62.3291925,21.1266611 C63.0277027,21.100965 63.7045754,21.3698165 64.1925466,21.8667788 C64.5652174,22.2923465 64.8,22.8474348 64.8,23.9576114 L64.8,30.5705635 L68.1055901,30.5705635 L68.1055901,24.1019344 C68.1006739,23.646225 68.0658173,23.1913197 68.0012422,22.7401177 C68.6899896,21.7730896 69.7909026,21.1772972 70.9826087,21.1266611 C71.6808747,21.1023587 72.3572004,21.3709929 72.8459627,21.8667788 C73.2186335,22.2923465 73.4534161,22.8474348 73.4534161,23.9576114 L73.4534161,30.5705635 L76.7180124,30.5705635 L76.7180124,24.1019344 C76.7180124,22.2886459 76.263354,21.0267452 75.4732919,20.0682927 C74.3984084,18.8110861 72.8185612,18.090371 71.157764,18.0995795 L71.1726708,18.0995795 Z M79.5279503,30.5890664 L82.8335404,30.5890664 L82.8335404,18.3512195 L79.5279503,18.3512195 L79.5279503,30.5890664 Z" id="Shape" fill="#FFFFFF"></path>
            </g>
        </g>
    </g>
</svg>