<?xml version="1.0" encoding="UTF-8"?>
<svg width="41px" height="41px" viewBox="0 0 41 41" version="1.1" xmlns="http://www.w3.org/2000/svg" xmlns:xlink="http://www.w3.org/1999/xlink">
    <!-- Generator: Sketch 58 (84663) - https://sketch.com -->
    <title>busqueda</title>
    <desc>Created with Sketch.</desc>
    <g id="Page-1" stroke="none" stroke-width="1" fill="none" fill-rule="evenodd">
        <g id="busqueda" fill="#000000" fill-rule="nonzero">
            <path d="M27.3510691,25.5286267 C32.8839916,18.989241 32.0680123,9.20266031 25.5286267,3.66981868 C18.989241,-1.86302296 9.20266031,-1.04712451 3.66981868,5.49226115 C-1.86302296,12.0316468 -1.04712451,21.8182275 5.49226115,27.3510691 C11.2749616,32.243794 19.7459262,32.243794 25.5286267,27.3510691 L39.1646324,41 L41,39.1646324 L27.3510691,25.5286267 Z M15.5245808,28.4497047 C8.38619639,28.4497047 2.59945685,22.6629651 2.59945685,15.5245808 C2.59945685,8.38619639 8.38619639,2.59945685 15.5245808,2.59945685 C22.6629651,2.59945685 28.4497047,8.38619639 28.4497047,15.5245808 C28.4497047,22.6629651 22.6629651,28.4497047 15.5245808,28.4497047 Z" id="Shape"></path>
        </g>
    </g>
</svg>