<?xml version="1.0" encoding="iso-8859-1"?>
<!-- Generator: Adobe Illustrator 19.0.0, SVG Export Plug-In . SVG Version: 6.00 Build 0)  -->
<svg xmlns="http://www.w3.org/2000/svg" xmlns:xlink="http://www.w3.org/1999/xlink" version="1.1" id="Layer_1" x="0px" y="0px" viewBox="0 0 512 512" style="enable-background:new 0 0 512 512;" xml:space="preserve" width="512" height="512">
<g>
	<polygon points="136,174.787 116.606,155.393 95.394,176.607 136,217.213 206.606,146.607 185.394,125.393  "/>
	<rect x="241" y="121" width="181" height="30"/>
	<rect x="241" y="181" width="181" height="30"/>
	<polygon points="136,294.787 116.606,275.393 95.394,296.607 136,337.213 206.606,266.607 185.394,245.393  "/>
	<rect x="241" y="241" width="181" height="30"/>
	<rect x="241" y="301" width="181" height="30"/>
	<path d="M75,451h362c41.355,0,75-33.645,75-75v-15h-30V61H30v300H0v15C0,417.355,33.645,451,75,451z M437,421H75   c-19.556,0-36.239-12.549-42.43-30.01H479.43C473.239,408.451,456.557,421,437,421z M60,91h392v270H60V91z"/>
</g>















</svg>
