<?xml version="1.0" encoding="UTF-8"?>
<svg width="31px" height="41px" viewBox="0 0 31 41" version="1.1" xmlns="http://www.w3.org/2000/svg" xmlns:xlink="http://www.w3.org/1999/xlink">
    <!-- Generator: Sketch 58 (84663) - https://sketch.com -->
    <title>idea</title>
    <desc>Created with Sketch.</desc>
    <g id="Page-1" stroke="none" stroke-width="1" fill="none" fill-rule="evenodd">
        <g id="idea" fill="#000000" fill-rule="nonzero">
            <path d="M29.5733662,9.04952546 C27.0426951,3.54172454 21.5489028,0.00956018519 15.4981558,0 C6.92522678,0.0135300926 -0.0134621565,6.98898148 1.96129104e-05,15.5801042 C0.00957922239,21.6436921 3.53426342,27.1491435 9.03040035,29.6851852 L9.03040035,33.7037037 C9.03040035,34.4196644 9.609507,35 10.3239514,35 L20.6723602,35 C21.3868047,35 21.9659113,34.4196644 21.9659113,33.7037037 L21.9659113,29.6851852 C29.7529272,26.0920139 33.1589281,16.8530671 29.5733662,9.04952546 Z M27.5423293,20.2598958 C26.227758,23.6360995 23.5628002,26.306713 20.1937463,27.6240741 L20.2066818,27.6240741 C19.7091497,27.8164931 19.3803452,28.2951505 19.3788091,28.8296296 L19.3788091,32.4074074 L16.7917069,32.4074074 L16.7917069,16.6314815 C18.3905361,16.1465046 19.4563413,14.6351852 19.3788091,12.962963 L16.7917069,12.962963 C16.8516145,13.6188889 16.3695242,14.1992245 15.7149873,14.2592593 C15.6428719,14.2659028 15.5702713,14.2659028 15.498075,14.2592593 C14.8435381,14.319294 14.2644315,13.8361806 14.2045239,13.1802546 C14.1978944,13.1079861 14.1978944,13.0352315 14.2045239,12.962963 L11.6174217,12.962963 C11.5398895,14.6351852 12.6056947,16.1465046 14.2045239,16.6314815 L14.2045239,32.4074074 L11.6174217,32.4074074 L11.6174217,28.8296296 C11.6158856,28.2951505 11.2870811,27.8164931 10.789549,27.6240741 C4.13414775,25.0216782 0.844081374,17.5053472 3.44096605,10.8358218 C6.03793157,4.1662963 13.5383451,0.869247685 20.1937463,3.47164352 C26.8491476,6.07403935 30.1392139,13.5903704 27.5423293,20.2598958 Z" id="Shape"></path>
            <polygon id="Path" points="9 38.5 12.9 38.5 12.9 41 18.1 41 18.1 38.5 22 38.5 22 36 9 36"></polygon>
        </g>
    </g>
</svg>