<?xml version="1.0" encoding="iso-8859-1"?>
<!-- Generator: Adobe Illustrator 19.0.0, SVG Export Plug-In . SVG Version: 6.00 Build 0)  -->
<svg version="1.1" id="Capa_1" xmlns="http://www.w3.org/2000/svg" xmlns:xlink="http://www.w3.org/1999/xlink" x="0px" y="0px"
	 viewBox="0 0 512 512" style="enable-background:new 0 0 512 512;" xml:space="preserve">
<g>
	<g>
		<g>
			<path d="M430.074,111.697C398.772,43.715,330.819,0.118,255.977,0C149.938,0.167,64.113,86.264,64.28,192.303
				c0.118,74.842,43.715,142.795,111.697,174.097V416c0,8.837,7.163,16,16,16h128c8.837,0,16-7.163,16-16v-49.6
				C432.295,322.05,474.424,208.015,430.074,111.697z M404.952,250.065c-16.26,41.672-49.223,74.635-90.895,90.895h0.16
				c-6.154,2.375-10.221,8.283-10.24,14.88V400h-32V205.28c19.776-5.986,32.959-24.64,32-45.28h-32
				c0.741,8.096-5.222,15.259-13.318,16c-0.892,0.082-1.79,0.082-2.683,0c-8.096,0.741-15.259-5.222-16-13.318
				c-0.082-0.892-0.082-1.79,0-2.682h-32c-0.959,20.64,12.224,39.294,32,45.28V400h-32v-44.16
				c-0.019-6.597-4.086-12.505-10.24-14.88c-82.321-32.121-123.016-124.894-90.895-207.215
				C138.963,51.424,231.736,10.729,314.057,42.85C396.378,74.971,437.073,167.744,404.952,250.065z"/>
			<polygon points="175.977,480 223.977,480 223.977,512 287.977,512 287.977,480 335.977,480 335.977,448 175.977,448 			"/>
		</g>
	</g>
</g>
<g>
</g>
<g>
</g>
<g>
</g>
<g>
</g>
<g>
</g>
<g>
</g>
<g>
</g>
<g>
</g>
<g>
</g>
<g>
</g>
<g>
</g>
<g>
</g>
<g>
</g>
<g>
</g>
<g>
</g>
</svg>
