<?xml version="1.0" encoding="UTF-8"?>
<svg width="41px" height="41px" viewBox="0 0 41 41" version="1.1" xmlns="http://www.w3.org/2000/svg" xmlns:xlink="http://www.w3.org/1999/xlink">
    <!-- Generator: Sketch 58 (84663) - https://sketch.com -->
    <title>iteration</title>
    <desc>Created with Sketch.</desc>
    <g id="Page-1" stroke="none" stroke-width="1" fill="none" fill-rule="evenodd">
        <g id="iteration" fill="#000000" fill-rule="nonzero">
            <path d="M35.4151078,30.0666667 C33.3535845,30.0666667 31.5531549,31.1688833 30.5855724,32.8 L19.3585429,32.8 C28.5966526,32.8 36.1132194,25.44255 36.1132194,16.4 C36.1132194,7.35745 28.5966526,0 19.3585429,0 C10.1204332,0 2.60386646,7.35745 2.60386646,16.4 L2.60386646,17.0833333 L2,17.0833333 L4.0000895,19.4326333 L6.000179,17.0833333 L5.39631254,17.0833333 L5.39631254,16.4 C5.39631254,8.8642 11.6597691,2.73333333 19.3585429,2.73333333 C27.0573167,2.73333333 33.3207733,8.8642 33.3207733,16.4 C33.3207733,23.9358 27.0573167,30.0666667 19.3585429,30.0666667 L13.0755392,30.0666667 L13.0755392,32.8 L13.0755392,36.9 L30.013819,36.9 C30.6365345,39.2540833 32.818133,41 35.4151078,41 C38.4944778,41 41,38.5475167 41,35.5333333 C41,32.51915 38.4944778,30.0666667 35.4151078,30.0666667 Z M34.7169963,38.5495667 L32.8272084,36.6997833 L33.8143381,35.73355 L34.7169963,36.6171 L37.7139891,33.68355 L38.7011188,34.6497833 L34.7169963,38.5495667 Z" id="Shape"></path>
            <path d="M8.35714286,26 L0.642857143,26 C0.288642857,26 0,26.2850909 0,26.6363636 L0,39.3636364 C0,39.7149091 0.288642857,40 0.642857143,40 L8.35714286,40 C8.71135714,40 9,39.7149091 9,39.3636364 L9,26.6363636 C9,26.2850909 8.71135714,26 8.35714286,26 Z M2.57142857,38.7272727 L1.28571429,38.7272727 L1.28571429,37.4545455 L2.57142857,37.4545455 L2.57142857,38.7272727 Z M5.14285714,38.7272727 L3.85714286,38.7272727 L3.85714286,37.4545455 L5.14285714,37.4545455 L5.14285714,38.7272727 Z M7.71428571,38.7272727 L6.42857143,38.7272727 L6.42857143,37.4545455 L7.71428571,37.4545455 L7.71428571,38.7272727 Z M7.71428571,36.1818182 L1.28571429,36.1818182 L1.28571429,34.9090909 L7.71428571,34.9090909 L7.71428571,36.1818182 Z M7.71428571,33.6363636 L1.28571429,33.6363636 L1.28571429,32.3636364 L7.71428571,32.3636364 L7.71428571,33.6363636 Z M7.71428571,31.0909091 L1.28571429,31.0909091 L1.28571429,29.8181818 L7.71428571,29.8181818 L7.71428571,31.0909091 Z M7.71428571,28.5454545 L1.28571429,28.5454545 L1.28571429,27.2727273 L7.71428571,27.2727273 L7.71428571,28.5454545 Z" id="Shape"></path>
            <path d="M21.5,19 C23.4299,19 25,17.4299 25,15.5 C25,13.5701 23.4299,12 21.5,12 C19.5701,12 18,13.5701 18,15.5 C18,17.4299 19.5701,19 21.5,19 Z M21.5,13.4 C22.6578,13.4 23.6,14.3422 23.6,15.5 C23.6,16.6578 22.6578,17.6 21.5,17.6 C20.3422,17.6 19.4,16.6578 19.4,15.5 C19.4,14.3422 20.3422,13.4 21.5,13.4 Z" id="Shape"></path>
            <circle id="Oval" cx="19.5" cy="17.5" r="1"></circle>
            <path d="M14,14.5879091 L14,17.4120909 L15.5565455,17.8009091 L15.8766364,18.5772727 L15.0519091,19.9518182 L17.0488182,21.9493636 L18.4220909,21.1246364 L19.1488182,21.4199091 L19.278,21.7603636 L19.5879091,23 L22.4120909,23 L22.8015455,21.4396364 L23.5779091,21.124 L24.9511818,21.9487273 L26.9480909,19.9511818 L26.1233636,18.5766364 L26.4199091,17.8524545 L26.7597273,17.7213636 L28,17.4120909 L28,14.5879091 L26.4434545,14.1990909 L26.124,13.4214545 L26.9487273,12.0481818 L24.9518182,10.0512727 L23.5785455,10.876 L22.8009091,10.5565455 L22.4120909,9 L19.5879091,9 L19.1990909,10.5565455 L18.4214545,10.876 L17.0481818,10.0512727 L15.0512727,12.0481818 L15.876,13.4214545 L15.5565455,14.1990909 L14,14.5879091 Z M21,11.5454545 C23.4563636,11.5454545 25.4545455,13.5436364 25.4545455,16 C25.4545455,18.4563636 23.4563636,20.4545455 21,20.4545455 C18.5436364,20.4545455 16.5454545,18.4563636 16.5454545,16 C16.5454545,13.5436364 18.5436364,11.5454545 21,11.5454545 Z" id="Shape"></path>
        </g>
    </g>
</svg>