<svg id="Layer_35" enable-background="new 0 0 64 64" height="512" viewBox="0 0 64 64" width="512" xmlns="http://www.w3.org/2000/svg"><path d="m55 47c-2.953 0-5.532 1.613-6.918 4h-16.082c13.233 0 24-10.767 24-24s-10.767-24-24-24-24 10.767-24 24v1h-.865l2.865 3.438 2.865-3.438h-.865v-1c0-11.028 8.972-20 20-20s20 8.972 20 20-8.972 20-20 20h-9v4 6h24.263c.892 3.445 4.017 6 7.737 6 4.411 0 8-3.589 8-8s-3.589-8-8-8zm-1 12.414-2.707-2.707 1.414-1.414 1.293 1.293 4.293-4.293 1.414 1.414z"/><path d="m16 39h-12c-.551 0-1 .448-1 1v20c0 .552.449 1 1 1h12c.551 0 1-.448 1-1v-20c0-.552-.449-1-1-1zm-9 20h-2v-2h2zm4 0h-2v-2h2zm4 0h-2v-2h2zm0-4h-10v-2h10zm0-4h-10v-2h10zm0-4h-10v-2h10zm0-4h-10v-2h10z"/><path d="m33 32c2.757 0 5-2.243 5-5s-2.243-5-5-5-5 2.243-5 5 2.243 5 5 5zm0-8c1.654 0 3 1.346 3 3s-1.346 3-3 3-3-1.346-3-3 1.346-3 3-3z"/><circle cx="33" cy="27" r="1"/><path d="m22 24.781v4.438l2.446.611.503 1.22-1.296 2.16 3.138 3.139 2.158-1.296 1.142.464.203.535.487 1.948h4.438l.612-2.452 1.22-.496 2.158 1.296 3.138-3.139-1.296-2.16.466-1.138.534-.206 1.949-.486v-4.438l-2.446-.611-.502-1.222 1.296-2.158-3.138-3.138-2.158 1.296-1.222-.502-.611-2.446h-4.438l-.611 2.446-1.222.502-2.158-1.296-3.138 3.138 1.296 2.158-.502 1.222zm11-4.781c3.86 0 7 3.14 7 7s-3.14 7-7 7-7-3.14-7-7 3.14-7 7-7z"/></svg>