<?xml version="1.0" encoding="UTF-8"?>
<svg width="35px" height="41px" viewBox="0 0 35 41" version="1.1" xmlns="http://www.w3.org/2000/svg" xmlns:xlink="http://www.w3.org/1999/xlink">
    <!-- Generator: Sketch 58 (84663) - https://sketch.com -->
    <title>lapiz</title>
    <desc>Created with Sketch.</desc>
    <g id="Page-1" stroke="none" stroke-width="1" fill="none" fill-rule="evenodd">
        <g id="lapiz" fill="#000000" fill-rule="nonzero">
            <path d="M27.471995,7.78359006 L11.3279902,24.0938945 C10.8362512,24.5936619 10.8362512,25.4006888 11.3279902,25.9004562 L14.9169559,29.5263919 C15.4116277,30.0231963 16.2104262,30.0231963 16.7050979,29.5263919 L20.2940636,25.9004562 L32.8491027,13.2160874 C32.9874142,13.0755503 33.0916432,12.9045036 33.1534673,12.7164001 L34.9416092,7.2839028 C35.0819815,6.83282295 34.9649121,6.34026264 34.6372446,6.00265343 C26.7121932,-2.00219224 13.8646788,-2.00067076 5.94145045,6.00593664 C-1.98177791,14.012544 -1.98027194,26.992481 5.94470017,34.9973267 C13.8684041,43.0008911 26.7134614,43.0008911 34.6371653,34.9973267 L32.8491027,33.1523276 C25.9217172,40.1636445 14.6801223,40.1738144 7.7402927,33.1749897 C0.800463137,26.176165 0.790476174,14.8188503 7.71786166,7.80761348 C14.0709968,1.37750336 24.1794677,0.761863042 31.2511886,6.37421575 L27.9031782,7.47609021 C27.7397407,7.54687924 27.5927897,7.65170145 27.471995,7.78359006 Z M31.7077355,8.93671449 L30.8453692,11.6273382 L19.4316973,23.1585825 L17.6435553,21.3520209 L29.0572272,9.82077656 L31.7077355,8.93671449 Z" id="Shape"></path>
        </g>
    </g>
</svg>