<?xml version="1.0" encoding="iso-8859-1"?>
<!-- Generator: Adobe Illustrator 19.0.0, SVG Export Plug-In . SVG Version: 6.00 Build 0)  -->
<svg version="1.1" id="Capa_1" xmlns="http://www.w3.org/2000/svg" xmlns:xlink="http://www.w3.org/1999/xlink" x="0px" y="0px"
	 viewBox="0 0 512 512" style="enable-background:new 0 0 512 512;" xml:space="preserve">
<g>
	<g>
		<path d="M381.811,97.2l-203.68,203.68c-6.204,6.241-6.204,16.319,0,22.56l45.28,45.28c6.241,6.204,16.319,6.204,22.56,0
			l45.28-45.28l158.4-158.4c1.745-1.755,3.06-3.891,3.84-6.24l22.56-67.84c1.771-5.633,0.294-11.784-3.84-16
			c-99.986-99.963-262.076-99.944-362.039,0.041s-99.944,262.076,0.041,362.039c99.969,99.947,262.028,99.947,361.997,0L449.651,414
			c-87.399,87.556-229.228,87.683-316.784,0.283S45.185,185.055,132.584,97.5c80.154-80.298,207.687-87.986,296.907-17.9
			l-42.24,13.76C385.189,94.244,383.335,95.553,381.811,97.2z M435.251,111.6l-10.88,33.6l-144,144l-22.56-22.56l144-144
			L435.251,111.6z"/>
	</g>
</g>
<g>
</g>
<g>
</g>
<g>
</g>
<g>
</g>
<g>
</g>
<g>
</g>
<g>
</g>
<g>
</g>
<g>
</g>
<g>
</g>
<g>
</g>
<g>
</g>
<g>
</g>
<g>
</g>
<g>
</g>
</svg>
