<svg id="Capa_1" enable-background="new 0 0 512 512" height="512" viewBox="0 0 512 512" width="512" xmlns="http://www.w3.org/2000/svg"><path d="m452 36h-392c-33.084 0-60 26.916-60 60v240c0 33.084 26.916 60 60 60h176v41.122h-104v38.878h248v-38.878h-104v-41.122h176c33.084 0 60-26.916 60-60v-240c0-33.084-26.916-60-60-60zm20 300c0 11.028-8.972 20-20 20h-392c-11.028 0-20-8.972-20-20v-240c0-11.028 8.972-20 20-20h392c11.028 0 20 8.972 20 20zm-218-82.878h146v40h-146zm0-111h146v40h-146zm-61.182 81.98 30.363 26.04-64.218 74.882-54.654-51.322 27.382-29.159 24.149 22.678zm0-112 30.363 26.04-64.218 74.882-54.654-51.322 27.382-29.159 24.149 22.678z"/></svg>