<?xml version="1.0" encoding="UTF-8"?>
<svg width="44px" height="41px" viewBox="0 0 44 41" version="1.1" xmlns="http://www.w3.org/2000/svg" xmlns:xlink="http://www.w3.org/1999/xlink">
    <!-- Generator: Sketch 58 (84663) - https://sketch.com -->
    <title>pruebas</title>
    <desc>Created with Sketch.</desc>
    <g id="Page-1" stroke="none" stroke-width="1" fill="none" fill-rule="evenodd">
        <g id="pruebas" fill="#000000" fill-rule="nonzero">
            <path d="M38.84375,0 L5.15625,0 C2.31309375,0 0,2.50808182 0,5.59090909 L0,27.9545455 C0,31.0373727 2.31309375,33.5454545 5.15625,33.5454545 L20.28125,33.5454545 L20.28125,37.3772773 L11.34375,37.3772773 L11.34375,41 L32.65625,41 L32.65625,37.3772773 L23.71875,37.3772773 L23.71875,33.5454545 L38.84375,33.5454545 C41.6869062,33.5454545 44,31.0373727 44,27.9545455 L44,5.59090909 C44,2.50808182 41.6869062,0 38.84375,0 Z M40.5625,27.9545455 C40.5625,28.9821545 39.7914687,29.8181818 38.84375,29.8181818 L5.15625,29.8181818 C4.20853125,29.8181818 3.4375,28.9821545 3.4375,27.9545455 L3.4375,5.59090909 C3.4375,4.5633 4.20853125,3.72727273 5.15625,3.72727273 L38.84375,3.72727273 C39.7914687,3.72727273 40.5625,4.5633 40.5625,5.59090909 L40.5625,27.9545455 Z M21.828125,20.2318227 L34.375,20.2318227 L34.375,23.9590955 L21.828125,23.9590955 L21.828125,20.2318227 Z M21.828125,9.88864091 L34.375,9.88864091 L34.375,13.6159136 L21.828125,13.6159136 L21.828125,9.88864091 Z M16.5702969,17.5276864 L19.1796172,19.9541409 L13.6608828,26.9317818 L8.96405469,22.1495045 L11.3171953,19.4324159 L13.3925,21.5455932 L16.5702969,17.5276864 Z M16.5702969,7.09132273 L19.1796172,9.51777727 L13.6608828,16.4954182 L8.96405469,11.7131409 L11.3171953,8.99605227 L13.3925,11.1092295 L16.5702969,7.09132273 Z" id="Shape"></path>
        </g>
    </g>
</svg>